<svg width="19" height="19" viewBox="0 0 19 19" fill="none" xmlns="http://www.w3.org/2000/svg">
<path d="M9.5625 6.00586C11.4082 6.00586 12.9316 7.5293 12.9316 9.375C12.9316 11.25 11.4082 12.7441 9.5625 12.7441C7.6875 12.7441 6.19336 11.25 6.19336 9.375C6.19336 7.5293 7.6875 6.00586 9.5625 6.00586ZM9.5625 11.5723C10.7637 11.5723 11.7305 10.6055 11.7305 9.375C11.7305 8.17383 10.7637 7.20703 9.5625 7.20703C8.33203 7.20703 7.36523 8.17383 7.36523 9.375C7.36523 10.6055 8.36133 11.5723 9.5625 11.5723ZM13.8398 5.88867C13.8398 5.44922 13.4883 5.09766 13.0488 5.09766C12.6094 5.09766 12.2578 5.44922 12.2578 5.88867C12.2578 6.32812 12.6094 6.67969 13.0488 6.67969C13.4883 6.67969 13.8398 6.32812 13.8398 5.88867ZM16.0664 6.67969C16.125 7.76367 16.125 11.0156 16.0664 12.0996C16.0078 13.1543 15.7734 14.0625 15.0117 14.8535C14.25 15.6152 13.3125 15.8496 12.2578 15.9082C11.1738 15.9668 7.92188 15.9668 6.83789 15.9082C5.7832 15.8496 4.875 15.6152 4.08398 14.8535C3.32227 14.0625 3.08789 13.1543 3.0293 12.0996C2.9707 11.0156 2.9707 7.76367 3.0293 6.67969C3.08789 5.625 3.32227 4.6875 4.08398 3.92578C4.875 3.16406 5.7832 2.92969 6.83789 2.87109C7.92188 2.8125 11.1738 2.8125 12.2578 2.87109C13.3125 2.92969 14.25 3.16406 15.0117 3.92578C15.7734 4.6875 16.0078 5.625 16.0664 6.67969ZM14.6602 13.2422C15.0117 12.3926 14.9238 10.3418 14.9238 9.375C14.9238 8.4375 15.0117 6.38672 14.6602 5.50781C14.4258 4.95117 13.9863 4.48242 13.4297 4.27734C12.5508 3.92578 10.5 4.01367 9.5625 4.01367C8.5957 4.01367 6.54492 3.92578 5.69531 4.27734C5.10938 4.51172 4.66992 4.95117 4.43555 5.50781C4.08398 6.38672 4.17188 8.4375 4.17188 9.375C4.17188 10.3418 4.08398 12.3926 4.43555 13.2422C4.66992 13.8281 5.10938 14.2676 5.69531 14.502C6.54492 14.8535 8.5957 14.7656 9.5625 14.7656C10.5 14.7656 12.5508 14.8535 13.4297 14.502C13.9863 14.2676 14.4551 13.8281 14.6602 13.2422Z" fill="currentColor"/>
</svg>
