<svg width="19" height="19" viewBox="0 0 19 19" fill="none" xmlns="http://www.w3.org/2000/svg">
<path d="M15.1875 2.8125C15.6855 2.8125 16.125 3.25195 16.125 3.7793V15C16.125 15.5273 15.6855 15.9375 15.1875 15.9375H3.9082C3.41016 15.9375 3 15.5273 3 15V3.7793C3 3.25195 3.41016 2.8125 3.9082 2.8125H15.1875ZM6.95508 14.0625V7.82227H5.02148V14.0625H6.95508ZM5.98828 6.94336C6.60352 6.94336 7.10156 6.44531 7.10156 5.83008C7.10156 5.21484 6.60352 4.6875 5.98828 4.6875C5.34375 4.6875 4.8457 5.21484 4.8457 5.83008C4.8457 6.44531 5.34375 6.94336 5.98828 6.94336ZM14.25 14.0625V10.6348C14.25 8.96484 13.8691 7.64648 11.9062 7.64648C10.9688 7.64648 10.3242 8.17383 10.0605 8.67188H10.0312V7.82227H8.18555V14.0625H10.1191V10.9863C10.1191 10.166 10.2656 9.375 11.291 9.375C12.2871 9.375 12.2871 10.3125 12.2871 11.0156V14.0625H14.25Z" fill="currentColor"/>
</svg>
