<svg width="23" height="20" viewBox="0 0 23 20" fill="none" xmlns="http://www.w3.org/2000/svg">
<path d="M11.115 0.835544L4.31247 6.53071H1.07804C0.485132 6.53088 0 7.01869 0 7.61504V11.9512C0 12.5473 0.485132 13.0352 1.07804 13.0352H4.31247L11.115 18.7305C11.7222 19.2355 12.2187 19.0037 12.2187 18.2151V1.35094C12.2187 0.562646 11.722 0.330716 11.115 0.835544Z" fill="white"/>
<path d="M17.8781 19.5668C17.562 19.5668 17.2561 19.399 17.0918 19.1021C16.8506 18.666 17.0072 18.1159 17.4409 17.8738C17.5907 17.788 21.2035 15.6574 21.2035 10.0787C21.2035 4.49995 17.5191 1.75478 17.3622 1.64344C16.9578 1.35667 16.8589 0.79402 17.1424 0.386325C17.4263 -0.0215346 17.9831 -0.122797 18.3895 0.161168C18.5781 0.292496 23.0005 3.45593 23.0005 10.0788C23.0005 16.7017 18.5048 19.3466 18.3136 19.4535C18.1753 19.5305 18.0258 19.5671 17.8782 19.5671L17.8781 19.5668Z" fill="white"/>
<path d="M15.2236 16.0147C14.9014 16.0147 14.5903 15.8401 14.4288 15.534C14.1966 15.093 14.364 14.5464 14.8025 14.3128C14.8855 14.2668 16.9836 13.0705 16.9836 9.96062C16.9836 6.85071 14.7496 5.22356 14.7271 5.20853C14.3131 4.93332 14.1998 4.37266 14.4736 3.9567C14.7473 3.54075 15.3054 3.4266 15.7187 3.70164C15.8436 3.78474 18.7803 5.78703 18.7803 9.96045C18.7803 14.1339 15.7713 15.8413 15.6432 15.9097C15.5091 15.9812 15.3652 16.0147 15.2234 16.0147H15.2236Z" fill="white"/>
</svg>
